<svg width="63" height="62" viewBox="0 0 63 62" fill="none" xmlns="http://www.w3.org/2000/svg">
<path d="M60.0469 23.7776V25.0162C60.0469 28.9105 59.06 32.7442 57.1744 36.175C55.2888 39.6057 52.5632 42.5267 49.2409 44.6771L38.3906 51.6997L34.4531 54.2478L31.5 56.1598L30.5156 55.5297L27.5625 53.6382L26.1475 52.7327L15.5371 45.9397L14.143 45.0475L13.8588 44.8647C10.5087 42.7197 7.75774 39.7935 5.85386 36.35C3.94998 32.9065 2.9531 29.054 2.95313 25.14V22.3586C2.9532 19.3031 3.84488 16.3109 5.52357 13.7331C6.84733 11.6995 8.67475 10.0253 10.8366 8.86543C12.9984 7.70555 15.4248 7.09752 17.891 7.09766H18.2638C20.5397 7.09776 22.7843 7.61569 24.8198 8.61044C26.8554 9.60519 28.626 11.0494 29.9914 12.8288L31.5 14.7937L33.0086 12.8288C34.4598 10.9376 36.3674 9.42673 38.5612 8.43094C40.755 7.43514 43.1669 6.98536 45.5818 7.12168C47.9966 7.258 50.3395 7.9762 52.4014 9.21223C54.4632 10.4483 56.1801 12.1637 57.3989 14.2057C59.1324 17.1112 60.0461 20.4142 60.0469 23.7776V23.7776Z" fill="#5D62B5"/>
<path d="M34.4531 46.0588V54.2358V54.2478L38.3906 51.6997V43.0525L34.4531 46.0588Z" fill="#EA9D2D"/>
<path d="M44.2969 20.5657V22.9707C44.297 23.2866 44.2334 23.5993 44.1097 23.8912C43.9861 24.183 43.8048 24.4482 43.5763 24.6715C43.3477 24.8949 43.0764 25.072 42.7778 25.1928C42.4792 25.3137 42.1591 25.3758 41.8359 25.3757H39.375V31.1477L39.0147 32.1112L39.6383 33.0717L40.1182 36.5879C40.2362 37.4485 40.2733 38.318 40.2289 39.1853C40.1451 40.8338 39.4978 42.4072 38.3906 43.6538L34.4531 46.5398V54.2478L31.5 56.1598L30.5156 55.5297V48.4638L26.1474 52.7327L15.5371 45.9397L23.625 34.9957L25.5937 32.1097L28.1716 29.5905L29.475 29.2787L29.5312 28.2617V25.5825C29.5314 22.9859 30.587 20.4957 32.4659 18.6597C33.1084 18.0325 33.9793 17.68 34.8875 17.6797H37.0186C37.8974 17.6799 38.7401 18.0211 39.3615 18.6285L41.3437 20.5657H44.2969Z" fill="#FBB540"/>
<path d="M35.4375 20.5657H37.4062V22.4897H35.4375V20.5657Z" fill="#985713"/>
<path d="M39.6387 33.0717H38.2187C36.2375 33.0692 34.2838 32.6185 32.5105 31.755L28.1719 29.5905L29.5315 28.2617V28.109L33.3989 30.0378C34.8963 30.7664 36.546 31.1463 38.2187 31.1477H39.3753L39.6387 33.0717Z" fill="#5D62B5"/>
<path d="M31.745 29.2237H29.5312V27.2997H31.745C31.941 27.2994 32.129 27.2232 32.2676 27.0877C32.4062 26.9523 32.4842 26.7686 32.4844 26.577V23.4517H34.4531V26.577C34.4523 27.2787 34.1667 27.9514 33.659 28.4476C33.1513 28.9437 32.463 29.2228 31.745 29.2237V29.2237Z" fill="#985713"/>
<path d="M31.5001 34.9957V36.9197C31.4999 37.6851 31.1887 38.4191 30.6349 38.9603C30.0811 39.5014 29.3301 39.8056 28.5469 39.8058V43.305C28.5473 44.1598 28.2883 44.9956 27.8025 45.7064L26.5782 47.5018V50.3878L26.9362 51.0876L27.234 51.6709L27.5626 52.3118V53.6382L26.1475 52.7327L15.5372 45.9397L14.1431 45.0475L19.6876 36.9197V33.9087C19.6876 33.8353 19.6888 33.7608 19.6912 33.6874C19.7536 32.2805 20.2998 30.9353 21.2416 29.8695L22.6407 28.2617L23.6251 32.1097H25.9821C26.4683 32.1097 26.9468 32.2271 27.3754 32.4513C27.8039 32.6756 28.1692 32.9998 28.4387 33.3952C28.7749 33.8875 29.2302 34.2911 29.7642 34.5703C30.2982 34.8495 30.8944 34.9956 31.5001 34.9957Z" fill="#E4E4E2"/>
<path d="M24.6094 34.9957H26.5781V36.9197H24.6094V34.9957Z" fill="#29C3BE"/>
</svg>
