<svg width="63" height="62" viewBox="0 0 63 62" fill="none" xmlns="http://www.w3.org/2000/svg">
<path d="M48.2344 53.2737V44.6157H54.1406V55.1978C54.1406 56.2183 53.7258 57.1971 52.9874 57.9187C52.2489 58.6403 51.2474 59.0458 50.2031 59.0458H48.2344V53.2737Z" fill="#F6BB92"/>
<path d="M52.8789 38.8438L53.8269 36.5635L54.6677 34.541C55.1181 33.4535 55.2393 32.2544 55.0157 31.0967C54.7921 29.939 54.2339 28.8751 53.4123 28.0408C52.3157 26.9272 51.6997 25.4169 51.6998 23.8422V18.321H27.0505V23.8427C27.0505 25.4174 26.4345 26.9276 25.3379 28.0413C24.5163 28.8754 23.9581 29.9392 23.7344 31.0968C23.5107 32.2544 23.6317 33.4535 24.082 34.541L24.972 36.6903L52.8789 38.8438Z" fill="#834B10"/>
<path d="M54.1406 39.8854C54.1406 38.5191 53.6447 37.197 52.741 36.1545C51.8373 35.112 50.5844 34.4165 49.2053 34.1919L48.2344 34.0338L43.1507 33.2057L39.375 36.9198L35.5596 33.1771L28.5469 34.0338V59.0459H48.2344V51.3498C49.1248 50.4793 49.687 49.3395 49.8292 48.1164C49.9713 46.8934 49.6851 45.6594 49.0172 44.6158H54.1406V39.8854Z" fill="#5D62B5"/>
<path d="M52.5 23.4517H26.25V16.2084C26.25 12.6864 27.6328 9.30878 30.0942 6.8184C32.5556 4.32803 35.894 2.92896 39.375 2.92896C42.856 2.92896 46.1944 4.32803 48.6558 6.8184C51.1172 9.30878 52.5 12.6864 52.5 16.2084V23.4517Z" fill="#834B10"/>
<path d="M47.25 16.7177V15.7557L46.2656 10.9457H32.4844L31.5 15.7557V16.7177C30.7168 16.7177 29.9656 17.0218 29.4118 17.563C28.858 18.1042 28.5469 18.8383 28.5469 19.6037C28.5469 20.3691 28.858 24.1932 29.4118 24.7344C29.9656 25.2756 29.6863 24.5769 30.4695 24.5769L30.1875 24.7344H31.5C31.5 26.5204 33.2103 26.9505 34.5026 28.2134C35.7948 29.4763 37.5475 30.1857 39.375 30.1857C41.2025 30.1857 42.9552 29.4763 44.2474 28.2134C45.5397 26.9505 46.2656 26.3629 46.2656 24.5769L47.25 24.7344H48.5625C49.3457 24.7344 48.7844 25.1181 49.3382 24.5769C49.892 24.0357 50.2031 20.3691 50.2031 19.6037C50.2031 18.8383 49.892 18.1042 49.3382 17.563C48.7844 17.0218 48.0332 16.7177 47.25 16.7177Z" fill="#F6BB92"/>
<path d="M38.3906 40.5934V59.0458H16.3652C17.0995 57.9287 17.9542 56.8919 18.9148 55.9529L18.9874 55.882C20.7474 54.1648 22.1554 52.1346 23.1353 49.9007C23.5216 49.0205 23.9068 48.1403 24.1873 47.5017C24.442 46.9209 24.6094 46.5397 24.6094 46.5397H21.7768C20.8989 46.539 20.0464 46.2519 19.3545 45.7238C18.6626 45.1958 18.1709 44.4571 17.9575 43.6249L17.4727 41.7297L17.3459 41.2343C17.2734 40.9507 17.2679 40.6546 17.33 40.3686C17.392 40.0826 17.52 39.8142 17.7041 39.5837C17.8881 39.3533 18.1236 39.1669 18.3924 39.0387C18.6612 38.9104 18.9565 38.8438 19.2556 38.8437H22.6406C23.2753 36.9811 24.5712 35.402 26.2939 34.392L26.7246 34.1407C27.8317 33.4919 29.0883 33.1263 30.3783 33.0777C31.6683 33.0292 32.95 33.2992 34.1049 33.8629L34.148 33.8846C35.4228 34.5076 36.495 35.4652 37.2443 36.6501C37.9937 37.835 38.3906 39.2004 38.3906 40.5934Z" fill="#4B4B4B"/>
<path d="M38.3906 40.7678V43.4974C38.3906 44.1032 38.1956 44.6935 37.8332 45.1849C37.4707 45.6763 36.9593 46.0438 36.3713 46.2353C35.7652 46.4327 35.1098 46.4327 34.5037 46.2353C33.9157 46.0438 33.4043 45.6763 33.0418 45.1849C32.6794 44.6935 32.4844 44.1032 32.4844 43.4974V38.8438H36.4219L38.3906 40.7678Z" fill="black"/>
<path d="M29.2432 45.2964L27.2745 47.2204C27.0897 47.4006 26.8392 47.5018 26.578 47.5017H24.1872C24.442 46.9209 24.6093 46.5397 24.6093 46.5397H21.7768C20.8181 46.5406 19.8924 46.1984 19.1743 45.5777H26.1708L27.8504 43.9351C28.0351 43.7546 28.2856 43.6532 28.5468 43.6532C28.808 43.6532 29.0585 43.7546 29.2432 43.9351C29.428 44.1156 29.5317 44.3605 29.5317 44.6157C29.5317 44.871 29.428 45.1158 29.2432 45.2964V45.2964Z" fill="black"/>
<path d="M20.6718 38.8438V40.0065C20.6718 40.4635 20.4861 40.9018 20.1554 41.225C19.8247 41.5482 19.3761 41.7298 18.9085 41.7298H17.4726L17.3459 41.2343C17.2733 40.9507 17.2679 40.6546 17.3299 40.3686C17.392 40.0826 17.5199 39.8142 17.704 39.5838C17.8881 39.3533 18.1235 39.1669 18.3924 39.0387C18.6612 38.9105 18.9564 38.8438 19.2556 38.8438H20.6718Z" fill="black"/>
<path d="M23.7253 56.6696C23.5426 56.6695 23.3635 56.6196 23.2081 56.5256C23.0527 56.4317 22.9271 56.2973 22.8455 56.1375C22.7638 55.9777 22.7292 55.7989 22.7457 55.621C22.7621 55.4432 22.8289 55.2733 22.9386 55.1304C24.1127 53.6015 25.0264 51.8973 25.6444 50.0836C25.6843 49.9626 25.7484 49.8506 25.8329 49.7539C25.9174 49.6573 26.0207 49.5779 26.1367 49.5205C26.2528 49.4631 26.3794 49.4288 26.5091 49.4195C26.6388 49.4101 26.7692 49.426 26.8926 49.4662C27.016 49.5065 27.13 49.5702 27.2281 49.6537C27.3261 49.7372 27.4063 49.8389 27.4639 49.9529C27.5215 50.0669 27.5554 50.1909 27.5636 50.3178C27.5719 50.4447 27.5544 50.5719 27.512 50.6921C26.8271 52.7019 25.8146 54.5905 24.5136 56.2848C24.4219 56.4045 24.3029 56.5015 24.1661 56.5683C24.0292 56.6352 23.8783 56.6698 23.7253 56.6696V56.6696Z" fill="black"/>
<path d="M31.5 16.7177C32.4254 16.4163 33.2725 15.9214 33.9823 15.2674C34.6921 14.6135 35.2474 13.8162 35.6098 12.9311L36.4219 10.9456L31.5 9.98364V16.7177Z" fill="#834B10"/>
<path d="M36.4219 10.9456L36.5372 11.1146C37.7129 12.8382 39.3059 14.2514 41.1747 15.2288C43.0435 16.2063 45.1304 16.7177 47.25 16.7177V9.98364L36.4219 10.9456Z" fill="#834B10"/>
<path d="M35.3555 20.7261C36.035 20.7261 36.5859 20.1877 36.5859 19.5235C36.5859 18.8594 36.035 18.321 35.3555 18.321C34.6759 18.321 34.125 18.8594 34.125 19.5235C34.125 20.1877 34.6759 20.7261 35.3555 20.7261Z" fill="black"/>
<path d="M40.6055 20.7261C41.285 20.7261 41.8359 20.1877 41.8359 19.5235C41.8359 18.8594 41.285 18.321 40.6055 18.321C39.9259 18.321 39.375 18.8594 39.375 19.5235C39.375 20.1877 39.9259 20.7261 40.6055 20.7261Z" fill="black"/>
<path d="M45.2812 41.7298C45.0202 41.7298 44.7698 41.6284 44.5852 41.448C44.4006 41.2676 44.2969 41.0229 44.2969 40.7678V34.0338C44.2969 33.7786 44.4006 33.534 44.5852 33.3535C44.7698 33.1731 45.0202 33.0718 45.2812 33.0718C45.5423 33.0718 45.7927 33.1731 45.9773 33.3535C46.1619 33.534 46.2656 33.7786 46.2656 34.0338V40.7678C46.2656 41.0229 46.1619 41.2676 45.9773 41.448C45.7927 41.6284 45.5423 41.7298 45.2812 41.7298Z" fill="#C3C3C3"/>
<path d="M45.2812 46.5398C46.9122 46.5398 48.2344 45.2477 48.2344 43.6538C48.2344 42.0599 46.9122 40.7678 45.2812 40.7678C43.6503 40.7678 42.3281 42.0599 42.3281 43.6538C42.3281 45.2477 43.6503 46.5398 45.2812 46.5398Z" fill="#E4E4E2"/>
<path d="M45.2812 44.6158C45.8249 44.6158 46.2656 44.1851 46.2656 43.6538C46.2656 43.1225 45.8249 42.6918 45.2812 42.6918C44.7376 42.6918 44.2969 43.1225 44.2969 43.6538C44.2969 44.1851 44.7376 44.6158 45.2812 44.6158Z" fill="#C3C3C3"/>
<path d="M49.2188 59.0459H34.4531C33.6699 59.0459 32.9188 58.7418 32.365 58.2006C31.8111 57.6594 31.5 56.9253 31.5 56.1599C31.5 55.3945 31.8111 54.6604 32.365 54.1192C32.9188 53.5779 33.6699 53.2739 34.4531 53.2739H35.4375C35.4375 52.7636 35.6449 52.2742 36.0141 51.9134C36.3833 51.5526 36.8841 51.3499 37.4062 51.3499H37.5752C38.0973 51.3499 38.598 51.5526 38.9672 51.9133L40.3594 53.2739H49.2188V59.0459Z" fill="#F6BB92"/>
<path d="M16.4745 54.58C16.329 54.8949 16.2548 55.2367 16.2569 55.5821C16.259 55.9276 16.3374 56.2685 16.4867 56.5816C16.636 56.8947 16.8527 57.1727 17.122 57.3964C17.3913 57.6202 17.7069 57.7845 18.0471 57.8781L21.8362 58.9243C22.5899 59.1325 23.3973 59.0395 24.0809 58.6659C24.7644 58.2922 25.2681 57.6686 25.4811 56.932C25.694 56.1955 25.5989 55.4065 25.2166 54.7385C24.8342 54.0706 24.1961 53.5784 23.4425 53.3702L22.495 53.1086C22.5653 52.8655 22.586 52.6112 22.5557 52.3603C22.5255 52.1093 22.445 51.8667 22.3188 51.6462C22.1926 51.4256 22.0232 51.2316 21.8202 51.075C21.6173 50.9185 21.3848 50.8025 21.136 50.7338L20.9734 50.689C20.7246 50.6203 20.4644 50.6001 20.2076 50.6297C19.9509 50.6592 19.7026 50.7379 19.4769 50.8613C18.361 51.4713 17.4747 52.4152 16.9484 53.5541L16.4745 54.58Z" fill="#F6BB92"/>
<path d="M11.4496 23.4517C12.3914 23.4517 13.2946 23.8758 13.9606 24.6306L15.7498 26.6584L17.5389 24.6306C18.2049 23.8758 19.1081 23.4518 20.0499 23.4517C20.8419 23.4516 21.6113 23.7517 22.2356 24.3042C22.8598 24.8567 23.3033 25.6298 23.4953 26.5007C23.7126 27.4854 23.6558 28.5221 23.3329 29.4688C23.01 30.4155 22.4367 31.2259 21.6916 31.7889L15.75 36.2784L9.8084 31.7889C9.06327 31.2259 8.48997 30.4155 8.16706 29.4688C7.84416 28.5221 7.78745 27.4854 8.0047 26.5007C8.19674 25.6299 8.64009 24.8568 9.26427 24.3044C9.88845 23.7519 10.6576 23.4518 11.4496 23.4517V23.4517Z" fill="#5D62B5"/>
<path d="M31.5 16.7177H32.4844V22.4897H31.5V16.7177Z" fill="#EEB58E"/>
<path d="M46.2656 16.7177H47.25V22.4897H46.2656V16.7177Z" fill="#EEB58E"/>
<path d="M35.5596 33.1771L39.375 36.9198L43.1507 33.2057C42.9209 33.1683 42.712 33.0524 42.5614 32.8786C42.4108 32.7049 42.3281 32.4846 42.3281 32.2568V29.2238H36.4219V32.2226C36.4219 32.457 36.3342 32.6834 36.1755 32.8592C36.0167 33.035 35.7976 33.148 35.5596 33.1771V33.1771Z" fill="#F6BB92"/>
<path d="M39.375 31.1477C36.5902 31.1477 33.9195 30.2017 31.9504 28.5179C29.9812 26.8341 28.875 24.5503 28.875 22.169V20.8864H49.875V22.169C49.875 24.5503 48.7688 26.8341 46.7996 28.5179C44.8305 30.2017 42.1598 31.1477 39.375 31.1477Z" fill="#5D62B5"/>
<path d="M27.5625 40.7678C28.1062 40.7678 28.5469 40.3371 28.5469 39.8058C28.5469 39.2745 28.1062 38.8438 27.5625 38.8438C27.0188 38.8438 26.5781 39.2745 26.5781 39.8058C26.5781 40.3371 27.0188 40.7678 27.5625 40.7678Z" fill="black"/>
</svg>
