<svg width="63" height="62" viewBox="0 0 63 62" fill="none" xmlns="http://www.w3.org/2000/svg">
<path d="M58.3836 5.49438H4.61638C3.51657 5.49438 2.625 6.36946 2.625 7.44893V44.5853C2.625 45.6648 3.51657 46.5398 4.61638 46.5398H58.3836C59.4834 46.5398 60.375 45.6648 60.375 44.5853V7.44893C60.375 6.36946 59.4834 5.49438 58.3836 5.49438Z" fill="#5D62B5"/>
<path d="M27.5625 24.093L21.6562 29.8651C21.4803 29.7797 21.3097 29.6871 21.1444 29.5873C20.1658 29.0068 19.3449 28.2044 18.7511 27.248C18.1574 26.2915 17.8083 25.2093 17.7335 24.093C17.7237 23.9427 17.7188 23.7912 17.7188 23.6385V21.207H23.625L27.5625 24.093Z" fill="#F3AF3E"/>
<path d="M25.5936 26.979L23.1327 28.422L21.1443 29.5873C20.1657 29.0068 19.3448 28.2044 18.751 27.2479C18.1573 26.2915 17.8082 25.2093 17.7334 24.093H22.7303L25.1088 26.4908L25.5936 26.979Z" fill="#5B3726"/>
<path d="M45.2812 21.207V23.6385C45.2812 23.7912 45.2763 23.9427 45.2665 24.093C45.1848 25.306 44.7797 26.4769 44.0916 27.4895C43.4034 28.5021 42.4561 29.3211 41.3438 29.8651L35.4375 24.093L39.375 21.207H45.2812Z" fill="#F3AF3E"/>
<path d="M45.2665 24.093C45.1968 25.1334 44.8889 26.1453 44.3654 27.0538C43.8419 27.9623 43.1162 28.7443 42.242 29.3419L39.375 27.941L37.4062 26.979L37.8911 26.4908L40.2695 24.093H45.2665Z" fill="#5B3726"/>
<path d="M42.3281 31.7891V44.2951H20.6719V31.7891C20.6719 28.9825 21.8127 26.291 23.8434 24.3064C25.874 22.3219 28.6282 21.207 31.5 21.207C34.3718 21.207 37.126 22.3219 39.1566 24.3064C41.1873 26.291 42.3281 28.9825 42.3281 31.7891V31.7891Z" fill="#F3AF3E"/>
<path d="M26.2686 28.0052L29.2227 27.0439L29.8448 28.8699L26.8907 29.8312L26.2686 28.0052Z" fill="#D18D28"/>
<path d="M33.1572 28.8378L33.7794 27.0118L36.7335 27.9731L36.1113 29.7991L33.1572 28.8378Z" fill="#D18D28"/>
<path d="M37.6307 35.4339L36.7502 33.7131C35.9701 34.0918 33.3197 36.1925 32.4851 35.9488V33.7131H30.5164V35.9498C29.6817 36.1931 27.0303 34.0917 26.2502 33.7131L25.3696 35.4339C26.0454 35.7624 28.5374 37.9752 29.2915 38.0076C30.0455 38.04 30.7981 37.9177 31.5007 37.6484C32.2035 37.9176 32.9561 38.0398 33.7101 38.0073C34.4641 37.9748 36.955 35.7626 37.6307 35.4339Z" fill="#744630"/>
<path d="M23.625 41.4091C23.6256 41.7468 23.5348 42.0787 23.3617 42.3711H20.6719V38.5231C21.4551 38.5231 22.2062 38.8271 22.76 39.3684C23.3139 39.9096 23.625 40.6437 23.625 41.4091Z" fill="#D18D28"/>
<path d="M42.3281 38.5231V42.3711H39.6383C39.4652 42.0787 39.3744 41.7468 39.375 41.4091C39.375 40.6437 39.6861 39.9096 40.24 39.3684C40.7938 38.8271 41.5449 38.5231 42.3281 38.5231Z" fill="#D18D28"/>
<path d="M20.6719 43.3331H18.7031C18.181 43.3331 17.6802 43.1304 17.311 42.7696C16.9418 42.4087 16.7344 41.9194 16.7344 41.4091C16.7344 40.6437 17.0455 39.9096 17.5993 39.3684C18.1531 38.8271 18.9043 38.5231 19.6875 38.5231C20.4707 38.5231 21.2219 38.8271 21.7757 39.3684C22.3295 39.9096 22.6406 40.6437 22.6406 41.4091C22.6406 41.9194 22.4332 42.4087 22.064 42.7696C21.6948 43.1304 21.194 43.3331 20.6719 43.3331Z" fill="#F3AF3E"/>
<path d="M44.2969 43.3331H42.3281C41.806 43.3331 41.3052 43.1304 40.936 42.7696C40.5668 42.4087 40.3594 41.9194 40.3594 41.4091C40.3594 40.6437 40.6705 39.9096 41.2243 39.3684C41.7781 38.8271 42.5293 38.5231 43.3125 38.5231C44.0957 38.5231 44.8469 38.8271 45.4007 39.3684C45.9545 39.9096 46.2656 40.6437 46.2656 41.4091C46.2656 41.9194 46.0582 42.4087 45.689 42.7696C45.3198 43.1304 44.819 43.3331 44.2969 43.3331Z" fill="#F3AF3E"/>
<path d="M31.5 34.675C30.9779 34.675 30.4771 34.4723 30.1079 34.1115C29.7387 33.7507 29.5312 33.2613 29.5312 32.751V30.827H33.4688V32.751C33.4688 33.2613 33.2613 33.7507 32.8921 34.1115C32.5229 34.4723 32.0221 34.675 31.5 34.675Z" fill="#5B3726"/>
<path d="M40.3594 52.6325H22.6406L22.8092 52.4677C24.5912 50.7249 25.5927 48.3622 25.5938 45.8984H37.4062C37.4064 48.3624 38.408 50.7254 40.1908 52.4677L40.3594 52.6325Z" fill="#D9D9D9"/>
<path d="M58.3836 46.5397H4.61638C4.08823 46.5397 3.58172 46.3235 3.20826 45.9386C2.83481 45.5538 2.625 45.0318 2.625 44.4875V41.4091H60.375V44.4875C60.375 45.0318 60.1652 45.5538 59.7917 45.9386C59.4183 46.3235 58.9118 46.5397 58.3836 46.5397Z" fill="#E4E4E2"/>
<path d="M22.6406 52.6324H40.3594C40.8815 52.6324 41.3823 52.8352 41.7515 53.196C42.1207 53.5568 42.3281 54.0462 42.3281 54.5565V56.4805H20.6719V54.5565C20.6719 54.0462 20.8793 53.5568 21.2485 53.196C21.6177 52.8352 22.1185 52.6324 22.6406 52.6324V52.6324Z" fill="#E4E4E2"/>
<path d="M37.6127 47.8224H25.3867C25.5243 47.1899 25.5935 46.5451 25.5934 45.8984H37.4059C37.4058 46.5451 37.4751 47.1899 37.6127 47.8224V47.8224Z" fill="#A8A8A8"/>
<ellipse cx="55.125" cy="10.625" rx="2.625" ry="2.56534" fill="#62B58F"/>
</svg>
